<?xml version="1.0" encoding="UTF-8" standalone="no" ?>
<!DOCTYPE svg PUBLIC "-//W3C//DTD SVG 1.1//EN" "http://www.w3.org/Graphics/SVG/1.1/DTD/svg11.dtd">
<svg xmlns="http://www.w3.org/2000/svg" xmlns:xlink="http://www.w3.org/1999/xlink" version="1.1" width="1080" height="1080" viewBox="0 0 1080 1080" xml:space="preserve">
  <desc>
    Created with Fabric.js 5.2.4
  </desc>
  <defs/>
  <rect x="0" y="0" width="100%" height="100%" fill="transparent"/>
  <g transform="matrix(1 0 0 1 540 540)" id="231a8491-e59f-4670-ba65-5a2691bbadab">
    <rect style="stroke: none; stroke-width: 1; stroke-dasharray: none; stroke-linecap: butt; stroke-dashoffset: 0; stroke-linejoin: miter; stroke-miterlimit: 4; fill: rgb(255,255,255); fill-rule: nonzero; opacity: 1;" vector-effect="non-scaling-stroke" x="-540" y="-540" rx="0" ry="0" width="1080" height="1080"/>
  </g>
  <g transform="matrix(1 0 0 1 540 540)" id="97602b16-ca14-4a56-bb51-9757bf045079"/>
  <g transform="matrix(15.02 0 0 15.02 552.92 561.93)" id="dda98f2b-e820-4238-9b37-a72fb9ce8465">
    <rect style="stroke: rgb(0,0,0); stroke-width: 0; stroke-dasharray: none; stroke-linecap: butt; stroke-dashoffset: 0; stroke-linejoin: miter; stroke-miterlimit: 4; fill: rgb(5,109,232); fill-rule: nonzero; opacity: 1;" vector-effect="non-scaling-stroke" x="-37.167" y="-37.167" rx="0" ry="0" width="74.334" height="74.334"/>
  </g>
  <g transform="matrix(44.85 0 0 44.85 568.31 557.69)" id="a1e8404c-259c-4b1a-89a1-8452871f6669">
    <path style="stroke: rgb(0,0,0); stroke-width: 0; stroke-dasharray: none; stroke-linecap: butt; stroke-dashoffset: 0; stroke-linejoin: miter; stroke-miterlimit: 4; fill: rgb(255,255,255); fill-rule: nonzero; opacity: 1;" vector-effect="non-scaling-stroke" transform=" translate(-12, -12)" d="M 14.478 14.8829 C 13.726066068847585 14.956183534207348 12.96859666902304 14.818265057361936 12.290749999999997 14.484649999999998 C 11.980398018275475 14.236329421429021 11.7865861643978 13.870694004564047 11.755279999999999 13.474459999999999 C 11.754647421919918 13.415207522168128 11.730336016836882 13.358670793681416 11.687764990868054 13.3174523022946 C 11.645193964899224 13.276233810907783 11.587902024433566 13.253759833895005 11.528659999999999 13.25504 C 11.212069999999999 13.25119 10.895539999999999 13.25204 10.579009999999998 13.25461 C 10.463886372174727 13.242868485768811 10.360735274303384 13.32591363449158 10.347629999999999 13.44089 C 10.31108023589371 14.137260488067728 10.587206568522689 14.813611415081146 11.100679999999997 15.285429999999998 C 11.74087635692251 15.784997029736926 12.518220640804383 16.077407724468618 13.328949999999997 16.12363 C 14.173697374365144 16.221612050542376 15.028628103913334 16.18531323646508 15.86203 16.01608 C 16.501966631948477 15.89670793168106 17.088670090086435 15.580525798356588 17.54026 15.111659999999999 C 18.047754296505676 14.485946977458136 18.19738371458685 13.643045924496183 17.93626 12.880889999999999 C 17.717626238021754 12.345282967121772 17.263286717509345 11.941111332871406 16.70586 11.786349999999999 C 15.42509 11.336949999999998 14.04155 11.37094 12.73586 11.029449999999999 C 12.50918 10.958099999999998 12.2322 10.88065 12.13119 10.640659999999999 C 12.011456056643896 10.294387439140728 12.125769984018296 9.9103187095379 12.41537 9.68588 C 12.82533426034362 9.45158436378069 13.292157481923926 9.335355332426559 13.764119999999998 9.350069999999999 C 14.404652937194207 9.289769987117461 15.050357146764716 9.382158848922252 15.648279999999998 9.61966 C 16.011830518753836 9.833456330583262 16.262980468584978 10.196297556500179 16.33505 10.61185 C 16.338600341192894 10.737422180979255 16.437276986599514 10.83958892742069 16.562649999999998 10.8475 C 16.876979999999996 10.85391 17.191429999999997 10.84921 17.50576 10.84964 C 17.61846286335594 10.863119845530628 17.72390681149358 10.791613056829169 17.753079999999997 10.681920000000002 C 17.758771367094827 9.819212493969914 17.307301072553763 9.017968285228093 16.566429999999997 8.575920000000002 C 15.561439701824952 8.112104711072904 14.445929910462976 7.941415976202362 13.348229999999994 8.083490000000001 L 13.348229999999997 8.08341 C 12.543971815532181 8.11637880461562 11.775560575076005 8.425127475630978 11.172079999999998 8.957790000000003 C 10.606817812447462 9.567033223198758 10.43823248050634 10.445176589521463 10.737699999999997 11.22043 C 10.968918814139453 11.735567269991503 11.414167264060842 12.123583690708383 11.956079999999996 12.2822 C 13.232569999999996 12.74326 14.631619999999996 12.59531 15.920499999999997 13.00302 C 16.171659999999996 13.08823 16.464139999999997 13.218539999999999 16.541099999999997 13.49808 C 16.62523227610819 13.83896679624518 16.522647671089853 14.198920254002086 16.271449999999998 14.44424 C 15.73540112683195 14.77724147090461 15.107234321883451 14.93088481231848 14.478 14.8829 Z M 20.29691 6.437529999999999 Q 16.55854 4.323529999999999 12.818460000000002 2.2133499999999993 C 12.309747456829488 1.9288944936398476 11.689842543170514 1.9288944936398473 11.18113 2.2133499999999997 Q 7.4556 4.31715 3.72968 6.42075 C 3.2375785717992693 6.688973449415787 2.929694905349118 7.203022787614349 2.9254800000000003 7.763460000000001 L 2.9254800000000003 16.2377 C 2.933582906060751 16.808570286735076 3.2543307583515437 17.328940664912786 3.7606799999999994 17.5927 C 4.47419 17.98107 5.16742 18.40899 5.89386 18.77154 C 6.743939697992604 19.22598301399137 7.758324764213603 19.25385969162616 8.63208 18.846790000000002 C 9.28883626035309 18.43539349367873 9.669942849382325 17.69942204914844 9.626900000000001 16.92565 C 9.63245 14.128960000000001 9.62775 11.33214 9.62903 8.535390000000001 C 9.638875639195392 8.473546076471324 9.62187571818881 8.410438736926812 9.582297422170553 8.36190868466146 C 9.542719126152297 8.313378632396105 9.484320389719228 8.284033765696165 9.42176 8.281240000000002 C 9.104370000000001 8.276110000000003 8.7865 8.278240000000002 8.46912 8.280390000000002 C 8.40968153074039 8.275055438264124 8.35079162188096 8.295341201194887 8.307248086186659 8.336149897278915 C 8.263704550492356 8.376958593362943 8.23964678236668 8.434410811213661 8.24112 8.494070000000002 C 8.23685 11.272820000000003 8.24198 14.052360000000004 8.23856 16.83153 C 8.24004943232675 17.2243861252155 7.997204182425863 17.57678289482947 7.62956 17.71526 C 7.211461410498769 17.8388451438219 6.760514965708525 17.77849128310965 6.3896299999999995 17.549310000000002 Q 5.398109999999999 16.989310000000003 4.40663 16.429430000000004 C 4.3169259762910706 16.386912092693127 4.263198201715384 16.293020172907674 4.27199 16.194140000000004 Q 4.27199 12.000310000000004 4.27199 7.806880000000005 C 4.262561131886869 7.695324344491374 4.325903304590124 7.590345788202286 4.42899 7.546680000000005 Q 8.1423 5.4553 11.85419 3.35953 C 11.942165579162683 3.299449682516181 12.058021976361323 3.299620509422862 12.145819999999999 3.35996 Q 15.859 5.452 19.57184 7.5455 C 19.67437573141707 7.590350104904396 19.737102145929537 7.695377577407115 19.727970000000003 7.80692 Q 19.72733 12 19.72712 16.19376 C 19.736076040763283 16.29297850241035 19.683314475967666 16.387547673912522 19.594179999999998 16.43204 Q 15.937749999999998 18.499570000000002 12.277409999999998 20.56113 C 12.160829999999997 20.62607 12.022829999999997 20.730559999999997 11.886479999999999 20.651889999999998 C 11.24738 20.290129999999998 10.61609 19.91434 9.979129999999998 19.549159999999997 C 9.912521527654745 19.49822062594423 9.821674810689647 19.492766183994785 9.749449999999998 19.535369999999997 C 9.468890295691034 19.699759760506737 9.173579216514828 19.837565794438476 8.867369999999998 19.946989999999996 C 8.729309999999998 20.002899999999997 8.559449999999998 20.018829999999998 8.464419999999997 20.146879999999996 C 8.585549379918865 20.278677282391556 8.732299857143417 20.384370156300516 8.895689999999997 20.457489999999996 Q 10.013099999999996 21.104489999999995 11.131689999999997 21.750339999999998 C 11.633998589524563 22.0657825766217 12.268029032187503 22.083401023249078 12.787079999999998 21.796339999999997 Q 16.51318 19.695339999999998 20.238929999999996 17.592419999999997 C 20.744806289856808 17.328220498858055 21.065491068034998 16.808319949106227 21.074559999999995 16.237679999999997 L 21.074559999999995 7.76346 C 21.070319830314798 7.21444467922388 20.774027992824387 6.709233604298253 20.29694 6.43753 Z" stroke-linecap="round"/>
  </g>
  <g transform="matrix(NaN NaN NaN NaN 0 0)">
    <g style=""/>
  </g>
  <g transform="matrix(NaN NaN NaN NaN 0 0)">
    <g style=""/>
  </g>
</svg>
